<?xml version="1.0" encoding="UTF-8"?>
<svg version="1.1" xmlns="http://www.w3.org/2000/svg" width="500" height="500">
<path d="M0 0 C2.55859375 1.29296875 2.55859375 1.29296875 5.4375 3.1875 C6.57661588 3.91902199 7.71737464 4.64798927 8.859375 5.375 C9.50197266 5.78621094 10.14457031 6.19742188 10.80664062 6.62109375 C15.21647989 9.3934415 19.70564825 12.03380669 24.1875 14.6875 C25.10136475 15.23365967 26.01522949 15.77981934 26.95678711 16.3425293 C32.10441844 19.39309767 37.30400666 22.19407083 42.67602539 24.82739258 C46.0958957 26.55295588 49.36135773 28.49804798 52.625 30.5 C53.91144533 31.28778165 55.19790355 32.07554225 56.484375 32.86328125 C57.08830078 33.23404785 57.69222656 33.60481445 58.31445312 33.98681641 C59.75652625 34.85364773 61.22741026 35.6722377 62.703125 36.48046875 C64.875 37.6875 64.875 37.6875 68 40 C68.99584167 44.01082873 69.1261885 47.90816539 69.12939453 52.02685547 C69.13254669 53.19602509 69.13569885 54.3651947 69.13894653 55.5697937 C69.13591019 57.44950363 69.13591019 57.44950363 69.1328125 59.3671875 C69.13376923 60.67470978 69.13472595 61.98223206 69.13571167 63.32937622 C69.13718316 66.09817691 69.13505517 68.86694527 69.13037109 71.63574219 C69.12584537 74.44403199 69.12577125 77.2522572 69.13037109 80.06054688 C69.1429829 87.93967514 69.11459666 95.81636568 69.02511597 103.69519043 C69.00329989 106.56579371 69.02445263 109.43148356 69.06079102 112.30175781 C69.04925682 121.56050402 69.04925682 121.56050402 66.49414062 125.06591797 C64.31343436 126.78094139 62.21664818 127.86306357 59.6875 129 C57.85620068 129.95724336 56.02550575 130.91564359 54.1953125 131.875 C52.70306152 132.6175 52.70306152 132.6175 51.18066406 133.375 C45.96109714 136.04167466 40.92258913 139.02070132 35.85592651 141.96365356 C32.88264318 143.68179008 29.89119952 145.36774831 26.90234375 147.05859375 C22.48719044 149.56045161 18.10704372 152.11412609 13.75390625 154.72265625 C12.79798584 155.28919922 11.84206543 155.85574219 10.85717773 156.43945312 C9.08689817 157.49108556 7.32409925 158.55545621 5.57055664 159.63476562 C4.78672607 160.09689453 4.00289551 160.55902344 3.1953125 161.03515625 C2.52516113 161.4412915 1.85500977 161.84742676 1.16455078 162.26586914 C-2.73929023 163.58989913 -5.94138361 162.50803887 -9.55786133 160.77246094 C-10.80732544 160.0111084 -10.80732544 160.0111084 -12.08203125 159.234375 C-13.01466797 158.67363281 -13.94730469 158.11289062 -14.90820312 157.53515625 C-15.86662109 156.94605469 -16.82503906 156.35695313 -17.8125 155.75 C-19.71417862 154.59785979 -21.61651522 153.44680485 -23.51953125 152.296875 C-24.44958984 151.73307129 -25.37964844 151.16926758 -26.33789062 150.58837891 C-29.40566887 148.75795289 -32.51719117 147.02386062 -35.64819336 145.3046875 C-40.43200216 142.65082326 -45.1486962 139.87952093 -49.875 137.125 C-51.39287109 136.24521484 -51.39287109 136.24521484 -52.94140625 135.34765625 C-71.41454179 124.58545821 -71.41454179 124.58545821 -74 122 C-74.14817603 119.51265356 -74.23160664 117.05194089 -74.2722168 114.56201172 C-74.28842575 113.78307053 -74.3046347 113.00412933 -74.32133484 112.20158386 C-74.461757 105.00092464 -74.53969173 97.79901955 -74.60025311 90.59728813 C-74.64121664 85.75721422 -74.70153662 80.9191648 -74.80932617 76.08007812 C-74.91314556 71.40379362 -74.96766687 66.72931422 -74.98771095 62.05194473 C-75.0036349 60.27119302 -75.03684573 58.49050679 -75.08786583 56.71041489 C-75.46800025 42.77689433 -75.46800025 42.77689433 -71.84437561 38.39079285 C-69.28949342 36.57106971 -66.86752516 35.25466719 -64 34 C-62.67115921 33.24301545 -61.34784801 32.47606145 -60.03515625 31.69140625 C-58.71332858 30.9773269 -57.38900035 30.26786129 -56.0625 29.5625 C-48.61887219 25.51690933 -41.30649573 21.26823849 -34.02810669 16.93380737 C-32.25980494 15.88083854 -30.49031437 14.82989601 -28.72045898 13.77954102 C-23.91911473 10.92879624 -19.12102674 8.07325416 -14.3359375 5.1953125 C-13.09933261 4.46290936 -11.86239712 3.73106387 -10.625 3 C-9.62726563 2.401875 -8.62953125 1.80375 -7.6015625 1.1875 C-4.69428202 -0.13954695 -3.15145562 -0.48978667 0 0 Z " fill="#DBDFE3" transform="translate(92,166)"/>
<path d="M0 0 C3.365865 1.121955 3.7231557 1.64868561 5.609375 4.48046875 C6.10953125 5.22200195 6.6096875 5.96353516 7.125 6.72753906 C7.66125 7.53932617 8.1975 8.35111328 8.75 9.1875 C9.91130211 10.91546959 11.07276726 12.64332961 12.234375 14.37109375 C12.84474609 15.28487793 13.45511719 16.19866211 14.08398438 17.14013672 C17.36004463 22.03001565 20.68242039 26.88824237 24 31.75 C24.62229492 32.66547607 25.24458984 33.58095215 25.88574219 34.52416992 C26.7776123 35.83478394 26.7776123 35.83478394 27.6875 37.171875 C28.24824219 38.00267578 28.80898437 38.83347656 29.38671875 39.68945312 C30.4079555 41.15207186 31.46933501 42.58811733 32.58203125 43.98242188 C36.04665499 48.3394487 36.04665499 48.3394487 35.79785156 51.86206055 C34.97601892 55.09431725 33.86922236 57.54149843 32.234375 60.44140625 C31.39326172 61.93510742 31.39326172 61.93510742 30.53515625 63.45898438 C29.94605469 64.48314453 29.35695312 65.50730469 28.75 66.5625 C27.88955078 68.10454102 27.88955078 68.10454102 27.01171875 69.67773438 C21.79877966 78.83897016 16.44324227 83.68137034 7.375 88.875 C6.51648438 89.38546875 5.65796875 89.8959375 4.7734375 90.421875 C3.9484375 90.89882813 3.1234375 91.37578125 2.2734375 91.8671875 C1.15074463 92.51856689 1.15074463 92.51856689 0.00537109 93.18310547 C-2 94 -2 94 -5 93 C-6.76171875 91.06640625 -6.76171875 91.06640625 -8.6875 88.5625 C-9.39519531 87.65371094 -10.10289063 86.74492187 -10.83203125 85.80859375 C-11.54746094 84.88175781 -12.26289062 83.95492187 -13 83 C-15.6480007 79.65152617 -18.31957483 76.32255969 -21 73 C-21.63204346 72.21230225 -21.63204346 72.21230225 -22.27685547 71.40869141 C-23.61504765 69.7457944 -24.9626447 68.09093721 -26.3125 66.4375 C-27.13363281 65.42558594 -27.95476562 64.41367187 -28.80078125 63.37109375 C-30.84707173 60.78402581 -30.84707173 60.78402581 -34 60 C-34 59.34 -34 58.68 -34 58 C-33.01 58 -32.02 58 -31 58 C-30.72381836 57.27635254 -30.44763672 56.55270508 -30.16308594 55.80712891 C-29.04926558 53.11890336 -27.79227822 50.63408138 -26.390625 48.0859375 C-25.88273437 47.15910156 -25.37484375 46.23226562 -24.8515625 45.27734375 C-24.32304688 44.31957031 -23.79453125 43.36179687 -23.25 42.375 C-22.73695312 41.44042969 -22.22390625 40.50585938 -21.6953125 39.54296875 C-20.65287347 37.64405343 -19.60940453 35.74570315 -18.56494141 33.84790039 C-17.02970487 31.05405731 -15.50182844 28.25632827 -13.9765625 25.45703125 C-11.03956831 20.06805109 -8.08470672 14.68903244 -5.125 9.3125 C-4.62742187 8.40822266 -4.12984375 7.50394531 -3.6171875 6.57226562 C-2.41163809 4.38141141 -1.20590762 2.19065706 0 0 Z " fill="#303942" transform="translate(109,226)"/>
<path d="M0 0 C6.07170607 0.42383662 10.40994982 3.25292863 15.5 6.3125 C16.32886719 6.79912109 17.15773437 7.28574219 18.01171875 7.78710938 C19.62304657 8.73879187 21.22754833 9.70214864 22.82421875 10.67822266 C24.16437254 11.49236007 25.51892308 12.28393652 26.89453125 13.03662109 C28.53125 13.98046875 28.53125 13.98046875 31 16 C31.94547483 20.02287819 32.12618724 23.90654286 32.12939453 28.02685547 C32.13254669 29.19602509 32.13569885 30.3651947 32.13894653 31.5697937 C32.1369223 32.82293365 32.13489807 34.07607361 32.1328125 35.3671875 C32.13376923 36.67470978 32.13472595 37.98223206 32.13571167 39.32937622 C32.13718316 42.09817691 32.13505517 44.86694527 32.13037109 47.63574219 C32.12472938 51.13652536 32.12800585 54.63723155 32.13382339 58.13801193 C32.17266101 85.8389504 32.17266101 85.8389504 31 99 C29.68 99 28.36 99 27 99 C24.9296875 96.59375 24.9296875 96.59375 22.875 93.5 C21.62774075 91.63617108 20.34559466 89.79412622 19 88 C18.34 88 17.68 88 17 88 C17 87.34 17 86.68 17 86 C17.99 86 18.98 86 20 86 C20.25523437 85.13761719 20.51046875 84.27523437 20.7734375 83.38671875 C22.44501709 78.77124263 24.97196895 74.87200956 27.5390625 70.70703125 C29.2374663 68.07267131 29.2374663 68.07267131 29 65 C25.7 71.27 22.4 77.54 19 84 C18.34 84 17.68 84 17 84 C15.61425967 82.22137944 14.31895591 80.37218747 13.0625 78.5 C12.24619564 77.29420185 11.4297848 76.08847578 10.61328125 74.8828125 C10.1848291 74.24504883 9.75637695 73.60728516 9.31494141 72.95019531 C7.59277736 70.39604633 5.84454769 67.86036879 4.0949707 65.32495117 C2.72405567 63.33738566 1.35773581 61.34672459 -0.0078125 59.35546875 C-2.18242677 56.18605287 -4.3668992 53.02361626 -6.5546875 49.86328125 C-7.74486564 48.13807186 -8.93497102 46.41281228 -10.125 44.6875 C-10.69379883 43.86878418 -11.26259766 43.05006836 -11.84863281 42.20654297 C-12.63898926 41.05822998 -12.63898926 41.05822998 -13.4453125 39.88671875 C-13.91469238 39.20826904 -14.38407227 38.52981934 -14.86767578 37.83081055 C-16 36 -16 36 -17 33 C-18.485 33.495 -18.485 33.495 -20 34 C-20 33.34 -20 32.68 -20 32 C-19.01 32 -18.02 32 -17 32 C-16.79246094 31.23945313 -16.58492188 30.47890625 -16.37109375 29.6953125 C-14.4340039 24.47455182 -11.75180994 19.74197947 -9.0625 14.875 C-8.52431641 13.88628906 -7.98613281 12.89757812 -7.43164062 11.87890625 C-5.14945898 7.71976387 -2.93100958 3.74238232 0 0 Z " fill="#2F3741" transform="translate(129,190)"/>
<path d="M0 0 C1.7890625 2.37109375 1.7890625 2.37109375 3.625 5.4375 C5.56048932 8.90765662 5.56048932 8.90765662 8 12 C8.38223294 16.70112393 7.52705741 19.73323355 5.5 23.953125 C4.67459717 25.69505127 4.67459717 25.69505127 3.83251953 27.47216797 C3.22183546 28.73152086 2.61099148 29.99079622 2 31.25 C1.37628222 32.55690184 0.75374584 33.86436808 0.13232422 35.17236328 C-1.19590893 37.96479045 -2.53009991 40.7542632 -3.86816406 43.54199219 C-7.21874817 50.53372282 -10.50165629 57.55742826 -13.79541016 64.5760498 C-15.52443611 68.25795232 -17.25817639 71.93763077 -18.9921875 75.6171875 C-19.29776581 76.26571686 -19.60334412 76.91424622 -19.91818237 77.58242798 C-20.61205732 79.05498227 -21.30601773 80.52749629 -22 82 C-22.78761719 81.20980469 -23.57523438 80.41960937 -24.38671875 79.60546875 C-25.84218629 78.15435238 -27.3082621 76.71299735 -28.8125 75.3125 C-30 74 -30 74 -30 72 C-30.66 72 -31.32 72 -32 72 C-33.70170452 69.99333051 -35.29565367 67.9751799 -36.875 65.875 C-41.43765864 59.92394009 -46.18616733 54.18375907 -51.11474609 48.53271484 C-58.09693316 40.5030823 -58.09693316 40.5030823 -57.83203125 34.37109375 C-56.10694024 29.45498932 -50.80655144 27.60514806 -46.44140625 25.31103516 C-42.42027803 23.1516893 -38.48951085 20.83727134 -34.54272461 18.5456543 C-31.14026248 16.57135614 -27.72885078 14.61323131 -24.31640625 12.65625 C-18.57456817 9.35026544 -12.88315191 5.96776693 -7.27587891 2.43774414 C-4.58431919 0.77798965 -3.23651677 0 0 0 Z " fill="#303941" transform="translate(76,174)"/>
<path d="M0 0 C0.66 0 1.32 0 2 0 C3.30932617 1.58544922 3.30932617 1.58544922 4.79296875 3.8046875 C5.33808105 4.61147949 5.88319336 5.41827148 6.44482422 6.24951172 C7.01990723 7.11592285 7.59499023 7.98233398 8.1875 8.875 C9.35983621 10.62556342 10.53300626 12.37556872 11.70703125 14.125 C12.27244629 14.96933594 12.83786133 15.81367188 13.42041016 16.68359375 C14.72430325 18.59570159 16.05679829 20.46469299 17.44921875 22.3125 C18.08472656 23.158125 18.72023437 24.00375 19.375 24.875 C19.91898438 25.57367188 20.46296875 26.27234375 21.0234375 26.9921875 C22.35129638 29.72226536 21.75919676 31.09595841 21 34 C20.06713867 36.14624023 20.06713867 36.14624023 18.91796875 38.30859375 C18.48653564 39.12706787 18.05510254 39.94554199 17.6105957 40.78881836 C17.14097412 41.6628833 16.67135254 42.53694824 16.1875 43.4375 C15.70047607 44.35474854 15.21345215 45.27199707 14.71166992 46.21704102 C13.14997606 49.14954122 11.57693826 52.07567167 10 55 C9.4834082 55.9590625 8.96681641 56.918125 8.43457031 57.90625 C2.43524826 69.02141937 -3.66102029 80.07458202 -10 91 C-16.67022028 84.39795915 -22.55863058 77.40213859 -28.203125 69.90625 C-29.09257813 68.96265625 -29.09257813 68.96265625 -30 68 C-30.99 68 -31.98 68 -33 68 C-32 65 -32 65 -30.67773438 63.3059082 C-28.35744178 60.11685647 -26.81677143 56.67266539 -25.15625 53.10546875 C-24.79022675 52.32884384 -24.42420349 51.55221893 -24.04708862 50.75205994 C-22.86060464 48.23245476 -21.68032469 45.70999553 -20.5 43.1875 C-19.68881814 41.46249061 -18.87713042 39.73771901 -18.06494141 38.01318359 C-16.85048404 35.43427502 -15.63636412 32.85521389 -14.42398071 30.27532959 C-11.10401317 23.21087378 -7.75000211 16.16335279 -4.375 9.125 C-3.6934082 7.70223755 -3.6934082 7.70223755 -2.99804688 6.25073242 C-1.99939351 4.16681999 -1.00012737 2.08320529 0 0 Z " fill="#313942" transform="translate(86,192)"/>
<path d="M0 0 C5.15234825 0.05973737 10.25130097 0.4883027 15.375 1 C16.15157959 1.07001221 16.92815918 1.14002441 17.72827148 1.2121582 C22.1593571 1.69226827 25.48651602 2.30926899 29.0625 5.1875 C32.20940061 10.15756645 31.43102867 15.88067 31.4375 21.5625 C31.46199219 22.6865625 31.48648438 23.810625 31.51171875 24.96875 C31.53436525 31.35506407 31.40441026 35.36136183 27.0625 40.1875 C26.4025 40.8475 25.7425 41.5075 25.0625 42.1875 C25.33513672 42.80794189 25.60777344 43.42838379 25.88867188 44.06762695 C27.11895031 46.87597408 28.34080817 49.68790755 29.5625 52.5 C29.99175781 53.47646484 30.42101562 54.45292969 30.86328125 55.45898438 C31.26933594 56.39677734 31.67539063 57.33457031 32.09375 58.30078125 C32.65932617 59.59689331 32.65932617 59.59689331 33.23632812 60.91918945 C34.0625 63.1875 34.0625 63.1875 34.0625 66.1875 C29.7725 66.1875 25.4825 66.1875 21.0625 66.1875 C12.0625 49.52083333 12.0625 49.52083333 12.0625 42.1875 C11.0725 42.1875 10.0825 42.1875 9.0625 42.1875 C9.06773682 42.87900146 9.07297363 43.57050293 9.07836914 44.28295898 C9.099075 47.39696352 9.11213963 50.51095361 9.125 53.625 C9.13337891 54.71361328 9.14175781 55.80222656 9.15039062 56.92382812 C9.15361328 57.95830078 9.15683594 58.99277344 9.16015625 60.05859375 C9.16539307 61.01693115 9.17062988 61.97526855 9.17602539 62.96264648 C9.0625 65.1875 9.0625 65.1875 8.0625 66.1875 C6.04285801 66.25994053 4.02082876 66.27127188 2 66.25 C0.89527344 66.24097656 -0.20945313 66.23195313 -1.34765625 66.22265625 C-2.20230469 66.21105469 -3.05695313 66.19945312 -3.9375 66.1875 C-4.06872409 58.89380354 -4.19917157 51.60009361 -4.32865143 44.30636597 C-4.38881005 40.91891811 -4.44922741 37.53147531 -4.51025391 34.14404297 C-4.58042136 30.24187358 -4.64967251 26.33968882 -4.71875 22.4375 C-4.74062378 21.23198486 -4.76249756 20.02646973 -4.78503418 18.78442383 C-4.84118531 15.58550419 -4.89075342 12.38656877 -4.9375 9.1875 C-4.95353271 8.34123047 -4.96956543 7.49496094 -4.98608398 6.62304688 C-5.00879151 4.81126784 -4.98016023 2.99891906 -4.9375 1.1875 C-3.9375 0.1875 -3.9375 0.1875 0 0 Z M10.0625 13.1875 C9.97618126 14.53017413 9.95543527 15.87724322 9.96484375 17.22265625 C9.96806641 18.03154297 9.97128906 18.84042969 9.97460938 19.67382812 C9.98298828 20.52396484 9.99136719 21.37410156 10 22.25 C10.00451172 23.10400391 10.00902344 23.95800781 10.01367188 24.83789062 C10.02549627 26.95445663 10.04343231 29.07098685 10.0625 31.1875 C12.39544775 31.22991723 14.72952567 31.22842937 17.0625 31.1875 C19.03549514 29.21450486 18.24749989 25.50261482 18.25 22.8125 C18.26224609 22.12671875 18.27449219 21.4409375 18.28710938 20.734375 C18.29802331 16.99453203 18.1891842 15.3775263 16.0625 12.1875 C12.77337856 11.6960887 12.77337856 11.6960887 10.0625 13.1875 Z " fill="#2F3943" transform="translate(196.9375,213.8125)"/>
<path d="M0 0 C3.96 0 7.92 0 12 0 C14.60337669 6.76713688 16.91085577 13.61696912 19.1875 20.5 C20.445625 24.295 21.70375 28.09 23 32 C23.33 21.44 23.66 10.88 24 0 C27.96 0 31.92 0 36 0 C36 21.12 36 42.24 36 64 C32.04 64 28.08 64 24 64 C21.94917783 59.3798459 20.22283381 54.8135885 18.73828125 49.97265625 C18.54276169 49.33887558 18.34724213 48.70509491 18.14579773 48.05210876 C17.5310981 46.05665796 16.9217089 44.05963309 16.3125 42.0625 C15.89293058 40.69715727 15.47301175 39.33192186 15.05273438 37.96679688 C14.03112048 34.64576028 13.01425755 31.32329167 12 28 C12.00523682 29.05501709 12.01047363 30.11003418 12.01586914 31.19702148 C12.03391901 35.0975663 12.04543195 38.9981074 12.05493164 42.89868164 C12.0599719 44.58944316 12.06680405 46.28020029 12.07543945 47.97094727 C12.08751857 50.39600707 12.09323123 52.82100944 12.09765625 55.24609375 C12.10281754 56.00651474 12.10797882 56.76693573 12.11329651 57.55039978 C12.11349238 59.3673257 12.06197277 61.18413127 12 63 C11.505 63.495 11.505 63.495 11 64 C7.37 64 3.74 64 0 64 C0 42.88 0 21.76 0 0 Z " fill="#474E55" transform="translate(383,216)"/>
<path d="M0 0 C5.61 0 11.22 0 17 0 C18.53333332 7.18515556 20.06315315 14.37104726 21.58984375 21.55761719 C22.10875554 23.99792249 22.62859576 26.43803057 23.14941406 28.87792969 C23.90158472 32.40246882 24.65031772 35.92772408 25.3984375 39.453125 C25.6287265 40.5286261 25.8590155 41.6041272 26.09628296 42.71221924 C27.59226065 49.78280688 28.85431921 56.86404536 30 64 C25.71 64 21.42 64 17 64 C15 55.5 15 55.5 15 51 C10.71 51 6.42 51 2 51 C1.34 55.29 0.68 59.58 0 64 C-4.29 64 -8.58 64 -13 64 C-11.69172473 55.95420064 -10.25226583 47.95344444 -8.65234375 39.9609375 C-8.43558487 38.87285797 -8.21882599 37.78477844 -7.99549866 36.66372681 C-7.54183586 34.38971863 -7.08719061 32.11590624 -6.6315918 29.84228516 C-5.93249157 26.34998076 -5.23856703 22.85667273 -4.54492188 19.36328125 C-4.10187379 17.14577112 -3.65852542 14.92832095 -3.21484375 12.7109375 C-2.90389015 11.14235489 -2.90389015 11.14235489 -2.58665466 9.54208374 C-2.39297806 8.5799295 -2.19930145 7.61777527 -1.99975586 6.62646484 C-1.745662 5.35505142 -1.745662 5.35505142 -1.48643494 4.05795288 C-1 2 -1 2 0 0 Z M8 17 C5.70724189 24.86088496 4.92528014 32.88903365 4 41 C6.97 41 9.94 41 13 41 C11.68 33.08 10.36 25.16 9 17 C8.67 17 8.34 17 8 17 Z " fill="#424950" transform="translate(442,216)"/>
<path d="M0 0 C3.33656274 2.61328778 6.0464331 5.06945997 8.625 8.4375 C11.84587755 12.56558125 15.16139809 16.58361144 18.5625 20.5625 C22.3883047 25.04797155 26.09527709 29.59499841 29.66015625 34.29296875 C31.03531307 36.11507781 31.03531307 36.11507781 33 38 C32.67829695 42.78063692 31.01333427 46.49360729 28.91015625 50.75390625 C28.60556992 51.3772435 28.30098358 52.00058075 27.98716736 52.64280701 C27.01954258 54.61970595 26.0415058 56.59121619 25.0625 58.5625 C24.08918039 60.53832674 23.11807779 62.51521748 22.14854431 64.49290466 C21.26841314 66.28570107 20.38253137 68.07567099 19.49633789 69.86547852 C18.21616144 72.54718605 17.06183117 75.22612432 16 78 C11.6852854 77.43310319 8.86348525 75.88294703 5.25 73.5 C3.80367187 72.55640625 3.80367187 72.55640625 2.328125 71.59375 C0 70 0 70 -1 69 C-1.10194364 66.6347152 -1.13949219 64.29942432 -1.1328125 61.93359375 C-1.13413177 61.19957336 -1.13545105 60.46555298 -1.1368103 59.70928955 C-1.138744 57.28531833 -1.13234722 54.86145973 -1.125 52.4375 C-1.12411377 51.61553131 -1.12322754 50.79356262 -1.12231445 49.94668579 C-1.10126167 33.28482126 -0.65022727 16.64823916 0 0 Z " fill="#333C44" transform="translate(19,219)"/>
<path d="M0 0 C1.16144531 0.11085937 2.32289063 0.22171875 3.51953125 0.3359375 C4.39996094 0.43132812 5.28039062 0.52671875 6.1875 0.625 C7.73503109 8.10086674 9.28238204 15.57677075 10.82950497 23.05272198 C11.54795103 26.52434266 12.26645843 29.99595062 12.98510742 33.4675293 C13.81187033 37.46138769 14.63836389 41.45530178 15.46484375 45.44921875 C15.72216782 46.69209152 15.97949188 47.93496429 16.24461365 49.21549988 C16.48478714 50.37632584 16.72496063 51.53715179 16.97241211 52.7331543 C17.18337021 53.75241501 17.39432831 54.77167572 17.61167908 55.82182312 C17.80169998 56.74687149 17.99172089 57.67191986 18.1875 58.625 C18.39818619 59.55089432 18.60887238 60.47678864 18.82594299 61.43074036 C19.00491371 62.51689888 19.00491371 62.51689888 19.1875 63.625 C18.1875 64.625 18.1875 64.625 15.46484375 64.72265625 C14.36269531 64.71105469 13.26054687 64.69945312 12.125 64.6875 C11.02027344 64.67847656 9.91554688 64.66945313 8.77734375 64.66015625 C7.92269531 64.64855469 7.06804687 64.63695312 6.1875 64.625 C4.62310486 59.73626518 4.1875 57.01777414 4.1875 51.625 C-0.1025 51.625 -4.3925 51.625 -8.8125 51.625 C-9.4725 55.915 -10.1325 60.205 -10.8125 64.625 C-15.1025 64.625 -19.3925 64.625 -23.8125 64.625 C-22.12505667 52.81289667 -19.93556504 41.10394333 -17.66381836 29.3918457 C-17.21781105 27.07093454 -16.78076657 24.74828465 -16.35229492 22.42407227 C-15.72851523 19.04524588 -15.07647348 15.67298884 -14.41796875 12.30078125 C-14.23131149 11.25819656 -14.04465424 10.21561188 -13.8523407 9.14143372 C-13.65896622 8.18250717 -13.46559174 7.22358063 -13.26635742 6.2355957 C-13.02558723 4.96870659 -13.02558723 4.96870659 -12.779953 3.67622375 C-11.8125 1.625 -11.8125 1.625 -9.64741516 0.31340027 C-6.23594732 -0.51500384 -3.48785824 -0.35230891 0 0 Z M-3.8125 17.625 C-4.31892925 20.68647257 -4.81649322 23.74932299 -5.3125 26.8125 C-5.45558594 27.67681641 -5.59867187 28.54113281 -5.74609375 29.43164062 C-6.40564262 33.53026577 -7.01959266 37.45726024 -6.8125 41.625 C-3.8425 41.625 -0.8725 41.625 2.1875 41.625 C0.8675 33.705 -0.4525 25.785 -1.8125 17.625 C-2.4725 17.625 -3.1325 17.625 -3.8125 17.625 Z " fill="#444A52" transform="translate(353.8125,215.375)"/>
<path d="M0 0 C1.32837891 -0.03673828 1.32837891 -0.03673828 2.68359375 -0.07421875 C8.45573624 -0.10002565 11.76251873 0.48944594 16.125 4.375 C17.8463061 9.53891829 17.17853552 14.96791236 17.125 20.375 C12.835 20.375 8.545 20.375 4.125 20.375 C4.125 17.075 4.125 13.775 4.125 10.375 C1.485 10.375 -1.155 10.375 -3.875 10.375 C-3.875 15.655 -3.875 20.935 -3.875 26.375 C-2.39 26.33375 -0.905 26.2925 0.625 26.25 C5.53231538 26.27088219 9.50383275 26.6724647 14.125 28.375 C16.81406445 31.91401609 17.50772169 34.53707206 17.5234375 38.9375 C17.52923828 40.50371094 17.52923828 40.50371094 17.53515625 42.1015625 C17.52355469 43.18179688 17.51195312 44.26203125 17.5 45.375 C17.51160156 46.45523438 17.52320313 47.53546875 17.53515625 48.6484375 C17.53128906 49.69257813 17.52742188 50.73671875 17.5234375 51.8125 C17.52005371 52.75996094 17.51666992 53.70742188 17.51318359 54.68359375 C17.04520498 57.92824545 16.09965039 59.76821556 14.125 62.375 C11.32910223 64.26769549 9.09238545 64.63049195 5.75390625 64.640625 C4.93212891 64.64320313 4.11035156 64.64578125 3.26367188 64.6484375 C2.41353516 64.64070313 1.56339844 64.63296875 0.6875 64.625 C-0.5819043 64.63660156 -0.5819043 64.63660156 -1.87695312 64.6484375 C-9.9954955 64.62300745 -9.9954955 64.62300745 -13.875 62.375 C-17.51263 56.47953069 -17.12746666 51.19159993 -16.875 44.375 C-12.585 44.375 -8.295 44.375 -3.875 44.375 C-3.875 47.675 -3.875 50.975 -3.875 54.375 C-1.235 54.375 1.405 54.375 4.125 54.375 C4.125 48.435 4.125 42.495 4.125 36.375 C-0.58726584 36.53230882 -0.58726584 36.53230882 -5.29760742 36.73535156 C-8.85793795 36.79497087 -10.76522635 36.44359021 -13.80078125 34.546875 C-17.97774809 30.17325247 -17.09407714 24.7561719 -17.125 19.0625 C-17.145625 18.12470703 -17.16625 17.18691406 -17.1875 16.22070312 C-17.21752543 10.89494194 -17.0562753 6.88180668 -13.875 2.375 C-9.45270403 -0.37132276 -5.05505041 0.00729445 0 0 Z " fill="#2D343D" transform="translate(303.875,215.625)"/>
<path d="M0 0 C0.94617188 -0.020625 1.89234375 -0.04125 2.8671875 -0.0625 C12.07699845 -0.11424051 12.07699845 -0.11424051 15.625 3.25 C18.52119217 9.37189123 17.76029931 15.62033404 17.625 22.25 C11.19 22.745 11.19 22.745 4.625 23.25 C3.73122472 19.67489889 3.5991556 18.00082437 4.0625 14.5 C4.16433594 13.70078125 4.26617187 12.9015625 4.37109375 12.078125 C4.45488281 11.47484375 4.53867187 10.8715625 4.625 10.25 C2.315 10.25 0.005 10.25 -2.375 10.25 C-3.35634406 15.24402847 -3.58555382 20.07995926 -3.69140625 25.1484375 C-3.71218735 25.98339752 -3.73296844 26.81835754 -3.75437927 27.67861938 C-3.81939469 30.3273349 -3.87853491 32.97614359 -3.9375 35.625 C-3.98073096 37.42839478 -4.02434666 39.23178038 -4.06835938 41.03515625 C-4.17502639 45.44001039 -4.27642695 49.8449576 -4.375 54.25 C-1.405 54.25 1.565 54.25 4.625 54.25 C4.625 50.29 4.625 46.33 4.625 42.25 C8.915 42.25 13.205 42.25 17.625 42.25 C18.06376837 56.58310007 18.06376837 56.58310007 14.625 61.25 C10.14920383 65.25697794 5.99847515 64.73081043 0.25 64.6875 C-0.68328125 64.70748047 -1.6165625 64.72746094 -2.578125 64.74804688 C-8.29029992 64.74400143 -12.00406254 64.30872764 -16.375 60.25 C-18.06093282 56.80664189 -18.61954714 54.07805773 -18.57373047 50.26367188 C-18.56646942 49.29917114 -18.55920837 48.33467041 -18.55172729 47.34094238 C-18.5222551 45.79545715 -18.5222551 45.79545715 -18.4921875 44.21875 C-18.47664825 43.1500769 -18.46110901 42.08140381 -18.44509888 40.98034668 C-18.4083432 38.72426909 -18.3659666 36.46827703 -18.31835938 34.21240234 C-18.25024979 30.76265188 -18.21412585 27.31351162 -18.1796875 23.86328125 C-18.13997743 21.66923455 -18.09837423 19.47522112 -18.0546875 17.28125 C-18.04718475 16.25092651 -18.03968201 15.22060303 -18.0319519 14.15905762 C-17.91186145 9.7337774 -17.81067737 6.98442429 -15.52001953 3.12304688 C-11.03371056 -0.79443121 -5.63754489 0.03047322 0 0 Z " fill="#313942" transform="translate(258.375,215.75)"/>
<path d="M0 0 C3.74737427 1.24912476 4.68977442 2.7938723 7.125 5.875 C7.90875 6.865 8.6925 7.855 9.5 8.875 C9.90734375 9.390625 10.3146875 9.90625 10.734375 10.4375 C11.99240293 11.9906209 13.30884402 13.49582174 14.625 15 C15.45 15.94875 16.275 16.8975 17.125 17.875 C18.27355469 19.17050781 18.27355469 19.17050781 19.4453125 20.4921875 C21 23 21 23 20.78100586 25.31176758 C19.89689048 28.35490433 18.63904285 30.77292553 17.05859375 33.51953125 C16.47529297 34.54111328 15.89199219 35.56269531 15.29101562 36.61523438 C14.37352539 38.19788086 14.37352539 38.19788086 13.4375 39.8125 C12.82197266 40.88693359 12.20644531 41.96136719 11.57226562 43.06835938 C10.05435656 45.71587518 8.53010236 48.35951856 7 51 C3.34026602 49.85451471 0.03831197 48.62850178 -3.26953125 46.6875 C-4.01267578 46.25179687 -4.75582031 45.81609375 -5.52148438 45.3671875 C-6.27751953 44.91601562 -7.03355469 44.46484375 -7.8125 44 C-8.58787109 43.54882812 -9.36324219 43.09765625 -10.16210938 42.6328125 C-15.87211762 39.25576475 -15.87211762 39.25576475 -17 37 C-15.95531553 34.4256126 -14.84566783 31.96715889 -13.6328125 29.47265625 C-13.27863251 28.72793564 -12.92445251 27.98321503 -12.55953979 27.21592712 C-11.42210084 24.82783054 -10.27395186 22.44507596 -9.125 20.0625 C-7.98532321 17.68253021 -6.84786087 15.30152218 -5.71188354 12.91978455 C-5.00334777 11.4360755 -4.29226576 9.95357918 -3.57839966 8.47242737 C-2.23443773 5.67209873 -0.98343288 2.95029863 0 0 Z " fill="#333B43" transform="translate(53,261)"/>
<path d="M0 0 C4.10425206 1.25233558 7.61392441 2.76669923 11.29296875 4.96875 C12.25267578 5.53980469 13.21238281 6.11085937 14.20117188 6.69921875 C15.18666016 7.29347656 16.17214844 7.88773438 17.1875 8.5 C18.18458984 9.09425781 19.18167969 9.68851563 20.20898438 10.30078125 C23.85058082 12.47640798 27.46999734 14.64666489 31 17 C30.4062739 20.82561656 29.28150106 23.7053332 27.41796875 27.08984375 C26.89783203 28.03923828 26.37769531 28.98863281 25.84179688 29.96679688 C25.29587891 30.94712891 24.74996094 31.92746094 24.1875 32.9375 C23.65318359 33.91396484 23.11886719 34.89042969 22.56835938 35.89648438 C19.89693162 40.74317066 17.17062673 45.46285618 14 50 C9.6550907 46.18174637 6.87229173 41.82945533 3.83984375 36.92578125 C1.5114029 33.22301651 -0.98931547 29.66036996 -3.51953125 26.09375 C-6.43264046 21.97389107 -7.52982613 20.09355573 -7 15 C-6.03956652 12.26700179 -4.7983482 9.71167054 -3.5 7.125 C-3.16613281 6.43664062 -2.83226563 5.74828125 -2.48828125 5.0390625 C-1.66928273 3.35426554 -0.83606409 1.67639381 0 0 Z " fill="#313A42" transform="translate(96,170)"/>
<path d="M0 0 C3.06536215 1.33772487 4.84885671 2.69191224 6.91796875 5.30859375 C7.44608154 5.96819092 7.97419434 6.62778809 8.51831055 7.30737305 C9.06914307 8.01031494 9.61997559 8.71325684 10.1875 9.4375 C11.34336219 10.89093349 12.49961409 12.34405715 13.65625 13.796875 C14.50509766 14.86905273 14.50509766 14.86905273 15.37109375 15.96289062 C16.81810771 17.7725256 18.28790698 19.55669611 19.78125 21.328125 C20.5753125 22.27171875 21.369375 23.2153125 22.1875 24.1875 C22.88230469 25.00605469 23.57710937 25.82460938 24.29296875 26.66796875 C26.02930272 29.0400314 27.04133044 31.23214892 28 34 C26.13818673 35.20806978 24.25988465 36.39075297 22.375 37.5625 C21.33085938 38.22378906 20.28671875 38.88507813 19.2109375 39.56640625 C15.39181716 41.27153662 14.00001865 40.97858545 10 40 C7.31518555 38.74072266 7.31518555 38.74072266 4.63671875 37.1640625 C3.66798828 36.59429687 2.69925781 36.02453125 1.70117188 35.4375 C0.70666016 34.839375 -0.28785156 34.24125 -1.3125 33.625 C-2.32634766 33.03460938 -3.34019531 32.44421875 -4.38476562 31.8359375 C-11.87253507 27.38239479 -11.87253507 27.38239479 -13 24 C-12.35083008 22.20996094 -12.35083008 22.20996094 -11.26953125 20.234375 C-10.87830078 19.50863281 -10.48707031 18.78289062 -10.08398438 18.03515625 C-9.66439453 17.28105469 -9.24480469 16.52695312 -8.8125 15.75 C-8.41224609 15.01136719 -8.01199219 14.27273438 -7.59960938 13.51171875 C-5.12940462 8.97166657 -2.57763137 4.47974555 0 0 Z " fill="#343C44" transform="translate(75,288)"/>
<path d="M0 0 C2.3125 1.5 2.3125 1.5 4 3 C3.22934595 7.8985252 1.26695072 11.78564772 -0.94140625 16.18359375 C-2.20017924 19.53258018 -2.52557985 21.44460692 -2 25 C-0.58408693 27.81028995 1.16882579 30.32125434 3 32.875 C3.47695312 33.56335938 3.95390625 34.25171875 4.4453125 34.9609375 C5.61779549 36.64931301 6.80724549 38.32588384 8 40 C7.01 40.99 7.01 40.99 6 42 C4.32756577 39.71234889 2.66193073 37.42026108 1 35.125 C0.52304688 34.47402344 0.04609375 33.82304687 -0.4453125 33.15234375 C-4 28.2265625 -4 28.2265625 -4 26 C-4.66 26 -5.32 26 -6 26 C-6.26296875 27.01835937 -6.5259375 28.03671875 -6.796875 29.0859375 C-7.87617433 32.84468201 -9.44457671 36.14759776 -11.25 39.625 C-15.62644762 48.16784256 -19.79060978 56.80920377 -23.94421387 65.46173096 C-25.65996013 69.03509554 -27.38267005 72.60496384 -29.11456299 76.17053223 C-29.72491817 77.43163282 -30.33194032 78.69435016 -30.93621826 79.95837402 C-31.86525801 81.90049387 -32.80466562 83.83729848 -33.74609375 85.7734375 C-34.29837646 86.91989746 -34.85065918 88.06635742 -35.41967773 89.24755859 C-37 92 -37 92 -40 94 C-40.39960937 93.29101562 -40.79921875 92.58203125 -41.2109375 91.8515625 C-43.13536374 88.78424557 -45.28169783 86.13488922 -47.625 83.375 C-48.5238924 82.31027972 -49.42232048 81.24516728 -50.3203125 80.1796875 C-50.77051758 79.64698242 -51.22072266 79.11427734 -51.68457031 78.56542969 C-53.64714356 76.22986553 -55.57346236 73.86532201 -57.5 71.5 C-62.28999468 65.63032853 -67.14100242 59.81253782 -72 54 C-72.33 58.29 -72.66 62.58 -73 67 C-73.33 67 -73.66 67 -74 67 C-74 58.42 -74 49.84 -74 41 C-73.67 41 -73.34 41 -73 41 C-72.93554688 42.19367188 -72.87109375 43.38734375 -72.8046875 44.6171875 C-72.22658903 49.16796263 -70.22836538 51.85671383 -67.125 55.125 C-66.12657499 56.23880004 -65.13056023 57.35476442 -64.13671875 58.47265625 C-63.62157715 59.04516113 -63.10643555 59.61766602 -62.57568359 60.20751953 C-59.91462625 63.23470934 -57.42480078 66.39221431 -54.9375 69.5625 C-54.4729541 70.14596191 -54.0084082 70.72942383 -53.52978516 71.33056641 C-51.35290864 74.10076909 -49.40352615 76.75682375 -48 80 C-47.34 80 -46.68 80 -46 80 C-44.2734375 81.96875 -44.2734375 81.96875 -42.375 84.5 C-41.74335937 85.3353125 -41.11171875 86.170625 -40.4609375 87.03125 C-39.97882812 87.6809375 -39.49671875 88.330625 -39 89 C-31.78707638 74.77027456 -24.84325196 60.4107587 -18 46 C-17.27538574 44.47802002 -17.27538574 44.47802002 -16.53613281 42.92529297 C-15.23904518 40.18571464 -13.95960378 37.43875198 -12.6875 34.6875 C-12.30859619 33.88860352 -11.92969238 33.08970703 -11.53930664 32.26660156 C-9.62316672 28.06192864 -8.24636194 24.70693247 -9 20 C-10.44421674 17.27347149 -10.44421674 17.27347149 -12.4375 14.8125 C-15.92446043 10.22661871 -15.92446043 10.22661871 -17 7 C-15.11248318 5.81992569 -13.21460805 4.65640827 -11.3125 3.5 C-10.25675781 2.8503125 -9.20101562 2.200625 -8.11328125 1.53125 C-4.99427829 -0.00281419 -3.4008658 -0.47234247 0 0 Z " fill="#D7DBDF" transform="translate(92,166)"/>
<path d="M0 0 C0.33 0 0.66 0 1 0 C1.33 3.63 1.66 7.26 2 11 C1.01 11 0.02 11 -1 11 C-0.34 12.65 0.32 14.3 1 16 C2.98 15.67 4.96 15.34 7 15 C8.44207941 17.88415883 8.09394887 20.41721528 8.0625 23.625 C8.05347656 24.81351563 8.04445313 26.00203125 8.03515625 27.2265625 C8.02355469 28.14179688 8.01195312 29.05703125 8 30 C9.134375 30.12375 10.26875 30.2475 11.4375 30.375 C13.2009375 30.684375 13.2009375 30.684375 15 31 C15.33 31.66 15.66 32.32 16 33 C15.34 33 14.68 33 14 33 C13.67 34.32 13.34 35.64 13 37 C13.66 37.33 14.32 37.66 15 38 C11.7 38.66 8.4 39.32 5 40 C4.34 44.29 3.68 48.58 3 53 C-1.29 53 -5.58 53 -10 53 C-8.37794513 41.63707877 -6.15597769 30.43318063 -3.875 19.1875 C-3.49842674 17.31971611 -3.12212269 15.45187792 -2.74609375 13.58398438 C-1.83382782 9.05535838 -0.91793504 4.52748014 0 0 Z " fill="#353C45" transform="translate(340,227)"/>
<path d="M0 0 C0.66 0 1.32 0 2 0 C3.56802659 2.13570745 5.01274839 4.27076687 6.4375 6.5 C7.33877046 7.88090943 8.24115258 9.26109382 9.14453125 10.640625 C9.6132666 11.35927734 10.08200195 12.07792969 10.56494141 12.81835938 C12.87280463 16.32687685 15.244333 19.7906193 17.625 23.25 C18.08165039 23.91531738 18.53830078 24.58063477 19.00878906 25.26611328 C22.44326721 30.24795308 25.99419303 35.12856871 29.63671875 39.9609375 C31 42 31 42 31 44 C31.66 44 32.32 44 33 44 C33.24492187 43.17242187 33.48984375 42.34484375 33.7421875 41.4921875 C35.19193489 37.46711244 37.0723051 33.86772286 39.125 30.125 C39.49753906 29.43664062 39.87007812 28.74828125 40.25390625 28.0390625 C41.16499526 26.35705202 42.08190315 24.67819564 43 23 C43.33 23 43.66 23 44 23 C43.55869594 29.10604339 41.55188828 33.22459587 38.4375 38.4375 C38.01275391 39.16904297 37.58800781 39.90058594 37.15039062 40.65429688 C36.11040486 42.44213758 35.05659823 44.22192662 34 46 C33.01 46 32.02 46 31 46 C31 46.66 31 47.32 31 48 C32.485 47.505 32.485 47.505 34 47 C37.96 52.94 37.96 52.94 42 59 C38.30877064 62.69122936 36.20604288 64.71932576 31.91796875 67.11328125 C30.98662109 67.63857422 30.05527344 68.16386719 29.09570312 68.70507812 C28.13599609 69.23552734 27.17628906 69.76597656 26.1875 70.3125 C25.20845703 70.86228516 24.22941406 71.41207031 23.22070312 71.97851562 C20.81783884 73.32646388 18.41098553 74.66664953 16 76 C16 72.3321299 17.04874376 70.82867195 18.87890625 67.66796875 C19.46994141 66.62189453 20.06097656 65.57582031 20.66992188 64.49804688 C21.9275619 62.29815024 23.19315191 60.10277871 24.46679688 57.91210938 C25.05654297 56.86216797 25.64628906 55.81222656 26.25390625 54.73046875 C26.80377197 53.77551514 27.3536377 52.82056152 27.92016602 51.83666992 C29.229957 48.39591445 28.97431144 46.51485143 28 43 C26.30091922 40.23242999 26.30091922 40.23242999 24.0625 37.5625 C20.0215575 32.42400749 16.34104795 27.12891513 12.75463867 21.6652832 C10.67053138 18.49647704 8.56279792 15.35464434 6.3671875 12.26171875 C5.94824219 11.6699585 5.52929688 11.07819824 5.09765625 10.46850586 C3.94266587 8.84510783 2.78015554 7.22706757 1.6171875 5.609375 C0 3 0 3 0 0 Z " fill="#D8DDE1" transform="translate(115,230)"/>
<path d="M0 0 C0.33 0 0.66 0 1 0 C2.1391641 5.45825897 2.14467095 10.7574691 2.1328125 16.3046875 C2.13376923 17.30146515 2.13472595 18.2982428 2.13571167 19.32522583 C2.13639092 21.43491682 2.13455443 23.54460992 2.13037109 25.65429688 C2.12507592 28.82947704 2.13029527 32.00451205 2.13671875 35.1796875 C2.14004692 46.49481437 1.91190863 57.71850619 1 69 C-0.32 69 -1.64 69 -3 69 C-5.0703125 66.59375 -5.0703125 66.59375 -7.125 63.5 C-8.37225925 61.63617108 -9.65440534 59.79412622 -11 58 C-11.66 58 -12.32 58 -13 58 C-13 57.34 -13 56.68 -13 56 C-12.01 56 -11.02 56 -10 56 C-9.74355713 55.11602539 -9.48711426 54.23205078 -9.22290039 53.32128906 C-7.99525525 49.98711369 -6.48644605 47.73566968 -4.43359375 44.859375 C0.57504462 36.46013389 0.00260464 27.78203248 -0.0625 18.25 C-0.04936436 16.47393233 -0.03311128 14.69788486 -0.01367188 12.921875 C0.02679586 8.61397328 0.02519483 4.30799755 0 0 Z " fill="#333B43" transform="translate(159,220)"/>
<path d="M0 0 C1.32 0.33 2.64 0.66 4 1 C3.67 1.66 3.34 2.32 3 3 C3.71144739 5.21504483 3.71144739 5.21504483 4.87109375 7.68359375 C5.28037109 8.61107422 5.68964844 9.53855469 6.11132812 10.49414062 C6.54896484 11.46544922 6.98660156 12.43675781 7.4375 13.4375 C8.29529913 15.35065973 9.1483873 17.26594069 9.99609375 19.18359375 C10.37950928 20.03493896 10.7629248 20.88628418 11.15795898 21.76342773 C12 24 12 24 12 27 C7.71 27 3.42 27 -1 27 C-4.31903386 20.89726032 -6 16.05562743 -6 9 C-3.36 8.67 -0.72 8.34 2 8 C2 8.99 2 9.98 2 11 C2.66 11 3.32 11 4 11 C3.71125 10.37351562 3.4225 9.74703125 3.125 9.1015625 C2.75375 8.28429687 2.3825 7.46703125 2 6.625 C1.62875 5.81289063 1.2575 5.00078125 0.875 4.1640625 C0 2 0 2 0 0 Z " fill="#383F47" transform="translate(219,253)"/>
<path d="M0 0 C3.87497194 1.93748597 4.68961712 2.49342718 6.8125 5.9375 C7.25207031 6.62714844 7.69164062 7.31679688 8.14453125 8.02734375 C9 10 9 10 8 13 C6.26586914 14.27441406 6.26586914 14.27441406 4.03515625 15.515625 C2.83536133 16.18464844 2.83536133 16.18464844 1.61132812 16.8671875 C0.77021484 17.32351563 -0.07089844 17.77984375 -0.9375 18.25 C-1.77474609 18.72179687 -2.61199219 19.19359375 -3.47460938 19.6796875 C-8.12355761 22.23791806 -8.12355761 22.23791806 -10 23 C-10.66 22.67 -11.32 22.34 -12 22 C-8.04 14.74 -4.08 7.48 0 0 Z " fill="#343C43" transform="translate(146,280)"/>
<path d="M0 0 C0.66 0.66 1.32 1.32 2 2 C1.64700993 5.44165321 0.95418308 7.06872538 -1 10 C-1.66 10 -2.32 10 -3 10 C-3 10.66 -3 11.32 -3 12 C-5.33214148 13.20628008 -7.49642139 14.1654738 -10 15 C-10.86657116 13.90554162 -11.71792724 12.79902219 -12.5625 11.6875 C-13.03816406 11.07261719 -13.51382813 10.45773438 -14.00390625 9.82421875 C-14.33261719 9.22222656 -14.66132812 8.62023437 -15 8 C-13.79883731 4.39651192 -12.98158719 4.0941532 -9.75 2.3125 C-8.98171875 1.87550781 -8.2134375 1.43851563 -7.421875 0.98828125 C-4.71389518 -0.11674922 -2.89706705 -0.3353987 0 0 Z " fill="#303842" transform="translate(92,166)"/>
<path d="M0 0 C0.79148438 -0.02578125 1.58296875 -0.0515625 2.3984375 -0.078125 C5.19130102 0.33345489 5.89277495 1.05965065 7.625 3.25 C7.96557617 5.24291992 7.96557617 5.24291992 7.91796875 7.48046875 C7.90830078 8.28291016 7.89863281 9.08535156 7.88867188 9.91210938 C7.86353516 10.74548828 7.83839844 11.57886719 7.8125 12.4375 C7.79896484 13.28248047 7.78542969 14.12746094 7.77148438 14.99804688 C7.73615799 17.08230384 7.68235139 19.16623277 7.625 21.25 C7.295 21.25 6.965 21.25 6.625 21.25 C6.49222656 20.11820313 6.35945312 18.98640625 6.22265625 17.8203125 C6.0444658 16.33851821 5.86606971 14.85674864 5.6875 13.375 C5.60048828 12.62863281 5.51347656 11.88226563 5.42382812 11.11328125 C4.99173937 7.0546769 4.99173937 7.0546769 3.625 3.25 C1.975 3.25 0.325 3.25 -1.375 3.25 C-1.705 9.19 -2.035 15.13 -2.375 21.25 C1.585 20.755 1.585 20.755 5.625 20.25 C5.625 21.24 5.625 22.23 5.625 23.25 C3.97925434 23.27688151 2.33338587 23.29634123 0.6875 23.3125 C-0.22902344 23.32410156 -1.14554688 23.33570313 -2.08984375 23.34765625 C-4.375 23.25 -4.375 23.25 -5.375 22.25 C-5.47399523 20.70044441 -5.50579524 19.14646327 -5.5078125 17.59375 C-5.50910156 16.65402344 -5.51039063 15.71429688 -5.51171875 14.74609375 C-5.50785156 13.75738281 -5.50398437 12.76867187 -5.5 11.75 C-5.50386719 10.76128906 -5.50773438 9.77257812 -5.51171875 8.75390625 C-5.51042969 7.81417969 -5.50914062 6.87445313 -5.5078125 5.90625 C-5.50668457 5.03806641 -5.50555664 4.16988281 -5.50439453 3.27539062 C-5.26489069 -0.47352239 -3.30035436 0.06408455 0 0 Z " fill="#41525E" transform="translate(209.375,223.75)"/>
<path d="M0 0 C0.66 0.33 1.32 0.66 2 1 C1.21987193 5.89353065 -0.70311881 9.85064126 -2.84375 14.28125 C-3.94735993 16.87622469 -4.55744891 19.22399773 -5 22 C-6.65 22 -8.3 22 -10 22 C-10.25523438 21.29488281 -10.51046875 20.58976562 -10.7734375 19.86328125 C-12.11550522 16.7303652 -13.76729867 14.04285575 -15.625 11.1875 C-16.25664063 10.21167969 -16.88828125 9.23585937 -17.5390625 8.23046875 C-18.02117187 7.49441406 -18.50328125 6.75835937 -19 6 C-18.34 5.34 -17.68 4.68 -17 4 C-16.16094435 5.12073862 -15.32892169 6.24674547 -14.5 7.375 C-13.80390625 8.31472656 -13.80390625 8.31472656 -13.09375 9.2734375 C-12 11 -12 11 -12 13 C-11.34 12.34 -10.68 11.68 -10 11 C-7 10 -7 10 -5 10 C-5 9.34 -5 8.68 -5 8 C-4.54625 7.566875 -4.0925 7.13375 -3.625 6.6875 C-1.65690769 4.64371183 -0.93273129 2.65469676 0 0 Z " fill="#464B51" transform="translate(94,168)"/>
<path d="M0 0 C3.02093215 3.02093215 2.46676834 6.56372072 2.625 10.625 C2.66367187 11.42679687 2.70234375 12.22859375 2.7421875 13.0546875 C2.83653931 15.03607556 2.91936215 17.01800645 3 19 C0.47524538 20.26237731 -1.31200466 20.09856404 -4.125 20.0625 C-5.73375 20.041875 -7.3425 20.02125 -9 20 C-9 16.37 -9 12.74 -9 9 C-12.3 9.33 -15.6 9.66 -19 10 C-19.16682272 14.92127034 -19.24828052 18.50343896 -17 23 C-17.99 23 -18.98 23 -20 23 C-21.49559965 18.05392242 -21.06102876 13.12641556 -21 8 C-16.71 8 -12.42 8 -8 8 C-8 11.3 -8 14.6 -8 18 C-5.36 18 -2.72 18 0 18 C0 12.06 0 6.12 0 0 Z " fill="#12161F" transform="translate(308,252)"/>
<path d="M0 0 C0.33 0 0.66 0 1 0 C1.67161995 3.10311638 2.33643675 6.20765168 3 9.3125 C3.19078125 10.19357422 3.3815625 11.07464844 3.578125 11.98242188 C3.84882813 13.25375977 3.84882813 13.25375977 4.125 14.55078125 C4.29257812 15.33106689 4.46015625 16.11135254 4.6328125 16.9152832 C5 19 5 19 5 22 C0.71 22 -3.58 22 -8 22 C-10 13.5 -10 13.5 -10 9 C-14.29 9 -18.58 9 -23 9 C-23.33 9.99 -23.66 10.98 -24 12 C-24 10.68 -24 9.36 -24 8 C-21.58145554 7.86463371 -19.17050217 7.76579721 -16.75 7.6875 C-15.72712891 7.6246582 -15.72712891 7.6246582 -14.68359375 7.56054688 C-12.671875 7.51171875 -12.671875 7.51171875 -9 8 C-6.515625 10.51953125 -6.515625 10.51953125 -5 13 C-5.66 13 -6.32 13 -7 13 C-7 15.64 -7 18.28 -7 21 C-5.02 20.67 -3.04 20.34 -1 20 C-1.33 19.34 -1.66 18.68 -2 18 C-1.01 18 -0.02 18 1 18 C0.67 12.06 0.34 6.12 0 0 Z " fill="#808488" transform="translate(467,258)"/>
<path d="M0 0 C0.33 0 0.66 0 1 0 C2.1391641 5.45825897 2.14467095 10.7574691 2.1328125 16.3046875 C2.13376923 17.30146515 2.13472595 18.2982428 2.13571167 19.32522583 C2.13639092 21.43491682 2.13455443 23.54460992 2.13037109 25.65429688 C2.12507592 28.82947704 2.13029527 32.00451205 2.13671875 35.1796875 C2.14004692 46.49481437 1.91190863 57.71850619 1 69 C0.67 69 0.34 69 0 69 C-0.85954306 45.93851806 -1.05624463 23.0577485 0 0 Z " fill="#717B87" transform="translate(159,220)"/>
<path d="M0 0 C9.74553918 -0.46082234 9.74553918 -0.46082234 14.0625 1.125 C17.3484459 4.30494765 17.94064987 7.95781175 18.1953125 12.4296875 C18.13020833 15.61979167 18.06510417 18.80989583 18 22 C11.565 22.495 11.565 22.495 5 23 C4.67 21.68 4.34 20.36 4 19 C6.475 19.99 6.475 19.99 9 21 C9 20.34 9 19.68 9 19 C10.98 19.33 12.96 19.66 15 20 C15 14.72 15 9.44 15 4 C13.35 3.67 11.7 3.34 10 3 C10 3.66 10 4.32 10 5 C9.34 4.67 8.68 4.34 8 4 C8.33 3.34 8.66 2.68 9 2 C6.03 1.67 3.06 1.34 0 1 C0 0.67 0 0.34 0 0 Z " fill="#1F252D" transform="translate(258,216)"/>
<path d="M0 0 C0.78375 0.04125 1.5675 0.0825 2.375 0.125 C2.375 0.785 2.375 1.445 2.375 2.125 C1.385 2.125 0.395 2.125 -0.625 2.125 C-1.57419825 7.09699082 -1.91700371 11.98072726 -2.16015625 17.0234375 C-2.20313339 17.85839752 -2.24611053 18.69335754 -2.29039001 19.55361938 C-2.42598361 22.20226077 -2.55681256 24.85111246 -2.6875 27.5 C-2.77898158 29.30340144 -2.87077514 31.10678708 -2.96289062 32.91015625 C-3.18720515 37.31492952 -3.40724886 41.71989758 -3.625 46.125 C-3.955 46.125 -4.285 46.125 -4.625 46.125 C-4.67559881 39.89538023 -4.71069062 33.6658132 -4.73486328 27.43603516 C-4.74493751 25.3155723 -4.75859733 23.19512339 -4.77587891 21.07470703 C-4.80006489 18.03154057 -4.81146869 14.98855734 -4.8203125 11.9453125 C-4.83063507 10.99318878 -4.84095764 10.04106506 -4.85159302 9.06008911 C-4.85174408 8.17932709 -4.85189514 7.29856506 -4.85205078 6.39111328 C-4.856492 5.61389923 -4.86093323 4.83668518 -4.86550903 4.03591919 C-4.453138 0.75950288 -3.15691513 0.15032929 0 0 Z " fill="#39444F" transform="translate(256.625,223.875)"/>
<path d="M0 0 C0.33 0 0.66 0 1 0 C1.05671875 1.18464844 1.1134375 2.36929688 1.171875 3.58984375 C1.78937019 8.49418052 3.93292639 11.05255448 7.25 14.5625 C8.25317688 15.68061242 9.25450229 16.80038895 10.25390625 17.921875 C10.96957764 18.71368164 10.96957764 18.71368164 11.69970703 19.52148438 C14.04431204 22.18744907 16.01776811 25.06082858 18 28 C17.34 28.66 16.68 29.32 16 30 C11.38 24.39 6.76 18.78 2 13 C1.67 17.29 1.34 21.58 1 26 C0.67 26 0.34 26 0 26 C0 17.42 0 8.84 0 0 Z " fill="#CED1D5" transform="translate(18,207)"/>
<path d="M0 0 C2.475 0.495 2.475 0.495 5 1 C3.9171875 1.94939453 3.9171875 1.94939453 2.8125 2.91796875 C-0.76175507 6.49599944 -2.7656848 10.82641401 -5 15.3125 C-8.07519158 21.40041833 -11.27548295 27.28147954 -15 33 C-16 30 -16 30 -15.07543945 27.65917969 C-14.59292725 26.75586914 -14.11041504 25.85255859 -13.61328125 24.921875 C-13.08669922 23.92542969 -12.56011719 22.92898437 -12.01757812 21.90234375 C-11.45490234 20.86207031 -10.89222656 19.82179687 -10.3125 18.75 C-9.76916016 17.72519531 -9.22582031 16.70039063 -8.66601562 15.64453125 C-5.86352465 10.37842367 -2.99486316 5.15903434 0 0 Z " fill="#D9DDE2" transform="translate(127,188)"/>
<path d="M0 0 C4.29 0 8.58 0 13 0 C13.42857143 14 13.42857143 14 10 19 C8.77670926 15.33012779 9.11978994 12.66032178 9.4375 8.8125 C9.53933594 7.54019531 9.64117187 6.26789063 9.74609375 4.95703125 C9.82988281 3.98121094 9.91367187 3.00539063 10 2 C7.03 1.67 4.06 1.34 1 1 C1 5.29 1 9.58 1 14 C-1.64 13.67 -4.28 13.34 -7 13 C-7 12.67 -7 12.34 -7 12 C-4.69 12 -2.38 12 0 12 C0 8.04 0 4.08 0 0 Z " fill="#0B0F18" transform="translate(263,258)"/>
<path d="M0 0 C1.4800841 0.11362262 2.95910074 0.24122908 4.4375 0.375 C5.26121094 0.44460938 6.08492188 0.51421875 6.93359375 0.5859375 C7.95646484 0.79089844 7.95646484 0.79089844 9 1 C9.33 1.66 9.66 2.32 10 3 C9.34 3 8.68 3 8 3 C7.67 4.32 7.34 5.64 7 7 C7.66 7.33 8.32 7.66 9 8 C5.7 8.66 2.4 9.32 -1 10 C-1.33 12.64 -1.66 15.28 -2 18 C-4.29013653 14.5647952 -4.17842973 13.014669 -4 9 C-1.36 8.01 1.28 7.02 4 6 C4 5.01 4 4.02 4 3 C2.68 3.33 1.36 3.66 0 4 C0 2.68 0 1.36 0 0 Z " fill="#222830" transform="translate(346,257)"/>
<path d="M0 0 C6.28371307 -0.10064005 12.32809949 0.24058331 18.5625 1 C19.78936523 1.14308594 19.78936523 1.14308594 21.04101562 1.2890625 C23.02788675 1.52144509 25.01402794 1.76005516 27 2 C23.69959882 3.98974803 21.39656905 4.18869828 17.578125 3.9765625 C16.55332031 3.925 15.52851563 3.8734375 14.47265625 3.8203125 C12.87744141 3.72363281 12.87744141 3.72363281 11.25 3.625 C9.63158203 3.53992188 9.63158203 3.53992188 7.98046875 3.453125 C5.31962301 3.31184116 2.65974769 3.16044734 0 3 C0 2.01 0 1.02 0 0 Z " fill="#3E4C6F" transform="translate(194,214)"/>
<path d="M0 0 C0.66 0.99 1.32 1.98 2 3 C0.73888071 5.63007775 -0.53324591 8.25376131 -1.8125 10.875 C-2.16892578 11.62136719 -2.52535156 12.36773437 -2.89257812 13.13671875 C-3.24384766 13.85214844 -3.59511719 14.56757813 -3.95703125 15.3046875 C-4.43619995 16.2944458 -4.43619995 16.2944458 -4.92504883 17.30419922 C-6 19 -6 19 -9 21 C-9.1875 18.6875 -9.1875 18.6875 -9 16 C-8.3503125 15.38125 -8.3503125 15.38125 -7.6875 14.75 C-5.28702398 12.26061746 -4.21463818 9.45952124 -2.8125 6.3125 C-2.28269531 5.13300781 -1.75289062 3.95351562 -1.20703125 2.73828125 C-0.80871094 1.83464844 -0.41039062 0.93101562 0 0 Z " fill="#D7DCDF" transform="translate(61,239)"/>
<path d="M0 0 C0.33 0.66 0.66 1.32 1 2 C1.66 2 2.32 2 3 2 C3 2.66 3 3.32 3 4 C3.99 4.33 4.98 4.66 6 5 C1.60546875 9.00390625 1.60546875 9.00390625 0 10 C-0.99 9.67 -1.98 9.34 -3 9 C-3 10.32 -3 11.64 -3 13 C-3.66 13 -4.32 13 -5 13 C-4.39254603 8.14036821 -2.27241033 4.2594482 0 0 Z " fill="#343C44" transform="translate(142,287)"/>
<path d="M0 0 C4.00551306 1.49986172 5.4391708 3.78330709 7.625 7.375 C8.21539062 8.33148438 8.80578125 9.28796875 9.4140625 10.2734375 C10.70097252 12.48590841 11.8955897 14.69276661 13 17 C12.01 17 11.02 17 10 17 C8.02734375 14.55078125 8.02734375 14.55078125 5.9375 11.3125 C5.24527344 10.25675781 4.55304688 9.20101562 3.83984375 8.11328125 C2.25869815 5.43775462 1.04462561 2.91737412 0 0 Z " fill="#DDE0E4" transform="translate(87,190)"/>
<path d="M0 0 C2.41854446 -0.13536629 4.82949783 -0.23420279 7.25 -0.3125 C8.27287109 -0.3753418 8.27287109 -0.3753418 9.31640625 -0.43945312 C11.328125 -0.48828125 11.328125 -0.48828125 15 0 C17.484375 2.51953125 17.484375 2.51953125 19 5 C18.34 5 17.68 5 17 5 C17 7.64 17 10.28 17 13 C16.34 12.67 15.68 12.34 15 12 C14.39616453 8.34850439 14.25493084 4.69649725 14 1 C9.71 1 5.42 1 1 1 C0.67 1.99 0.34 2.98 0 4 C0 2.68 0 1.36 0 0 Z " fill="#969A9D" transform="translate(443,266)"/>
<path d="M0 0 C0.598125 0.185625 1.19625 0.37125 1.8125 0.5625 C4.16408762 1.22093687 4.16408762 1.22093687 7 0 C6.5206753 4.31392226 5.2542015 6.16569547 2 9 C0.68 7.02 -0.64 5.04 -2 3 C-1.34 2.01 -0.68 1.02 0 0 Z " fill="#3B4148" transform="translate(107,211)"/>
<path d="M0 0 C0.66 0.33 1.32 0.66 2 1 C1.38188466 5.55315948 -0.46765893 9.28459767 -2.5625 13.3125 C-2.89185547 13.95767578 -3.22121094 14.60285156 -3.56054688 15.26757812 C-4.36824255 16.84785228 -5.18337613 18.42432105 -6 20 C-7.07980476 16.78249481 -6.97733906 15.17877268 -5.56640625 12.109375 C-5.24736328 11.40039062 -4.92832031 10.69140625 -4.59960938 9.9609375 C-4.25736328 9.23132813 -3.91511719 8.50171875 -3.5625 7.75 C-3.22412109 7.00492188 -2.88574219 6.25984375 -2.53710938 5.4921875 C-1.70173696 3.65672135 -0.85222033 1.82770445 0 0 Z " fill="#DDE1E5" transform="translate(94,168)"/>
<path d="M0 0 C0.66 0 1.32 0 2 0 C3.625 2 3.625 2 5 4 C5.66 3.67 6.32 3.34 7 3 C7.33 3.99 7.66 4.98 8 6 C7.01 6 6.02 6 5 6 C5 6.66 5 7.32 5 8 C5.66 8 6.32 8 7 8 C7 8.66 7 9.32 7 10 C6.34 10 5.68 10 5 10 C4.34 11.98 3.68 13.96 3 16 C2.34 15.01 1.68 14.02 1 13 C1.350625 12.4225 1.70125 11.845 2.0625 11.25 C3.5334171 7.71979896 2.27249865 5.70529063 0.9375 2.25 C0.4734375 1.13625 0.4734375 1.13625 0 0 Z " fill="#D3D8DC" transform="translate(70,278)"/>
<path d="M0 0 C10 11.92307692 10 11.92307692 10 16 C9.34 16 8.68 16 8 16 C6.33735936 13.73786371 4.81092599 11.49191091 3.3125 9.125 C2.88388672 8.47402344 2.45527344 7.82304687 2.01367188 7.15234375 C0.94089107 5.47666358 -0.03745881 3.74134349 -1 2 C-0.67 1.34 -0.34 0.68 0 0 Z " fill="#DDDFE3" transform="translate(76,172)"/>
<path d="M0 0 C0.33 0.66 0.66 1.32 1 2 C-0.78614318 3.03046722 -2.57910018 4.04913236 -4.375 5.0625 C-5.87160156 5.91521484 -5.87160156 5.91521484 -7.3984375 6.78515625 C-8.25695312 7.18605469 -9.11546875 7.58695312 -10 8 C-10.66 7.67 -11.32 7.34 -12 7 C-11.01 5.68 -10.02 4.36 -9 3 C-8.67 3.33 -8.34 3.66 -8 4 C-7.67 3.01 -7.34 2.02 -7 1 C-4.53721199 -0.231394 -2.7204945 -0.07159196 0 0 Z " fill="#595D62" transform="translate(146,295)"/>
<path d="M0 0 C0.33 1.32 0.66 2.64 1 4 C-0.62318979 4.36237263 -2.2486358 4.71465157 -3.875 5.0625 C-4.77992187 5.25972656 -5.68484375 5.45695313 -6.6171875 5.66015625 C-9 6 -9 6 -11 5 C-9.73461631 4.15841464 -8.46246221 3.32700252 -7.1875 2.5 C-6.47980469 2.0359375 -5.77210937 1.571875 -5.04296875 1.09375 C-3 0 -3 0 0 0 Z " fill="#454C53" transform="translate(76,174)"/>
<path d="M0 0 C0.33 0 0.66 0 1 0 C1.33 3.63 1.66 7.26 2 11 C1.01 11 0.02 11 -1 11 C-0.34 12.98 0.32 14.96 1 17 C-0.98 17.99 -0.98 17.99 -3 19 C-2.37679879 12.56025419 -1.35991738 6.32427599 0 0 Z " fill="#20242B" transform="translate(340,227)"/>
<path d="M0 0 C5.94 0.33 11.88 0.66 18 1 C18 1.66 18 2.32 18 3 C15.56183415 3.0809723 13.12635616 3.14046972 10.6875 3.1875 C9.65206055 3.22520508 9.65206055 3.22520508 8.59570312 3.26367188 C6.57421875 3.29296875 6.57421875 3.29296875 3 3 C2.01 2.01 1.02 1.02 0 0 Z " fill="#1D2329" transform="translate(290,249)"/>
<path d="M0 0 C0.33 0 0.66 0 1 0 C1 3.96 1 7.92 1 12 C-5.435 12.495 -5.435 12.495 -12 13 C-12.33 11.68 -12.66 10.36 -13 9 C-10.525 9.99 -10.525 9.99 -8 11 C-8 10.34 -8 9.68 -8 9 C-5.36 9.66 -2.72 10.32 0 11 C0 7.37 0 3.74 0 0 Z " fill="#141821" transform="translate(275,226)"/>
<path d="M0 0 C0.66 0.99 1.32 1.98 2 3 C1.67 3.99 1.34 4.98 1 6 C0.65179959 7.66362417 0.31595508 9.32995171 0 11 C-0.99 11 -1.98 11 -3 11 C-3 10.34 -3 9.68 -3 9 C-3.99 9.33 -4.98 9.66 -6 10 C-6 9.34 -6 8.68 -6 8 C-5.01 8 -4.02 8 -3 8 C-2.690625 7.05125 -2.38125 6.1025 -2.0625 5.125 C-1 2 -1 2 0 0 Z " fill="#3D444B" transform="translate(115,214)"/>
<path d="M0 0 C0.66 1.32 1.32 2.64 2 4 C-1.96 4 -5.92 4 -10 4 C-6.2751896 0.2751896 -5.07777425 -0.13362564 0 0 Z " fill="#454A50" transform="translate(92,166)"/>
<path d="M0 0 C0.66 0.33 1.32 0.66 2 1 C0.02 3.97 0.02 3.97 -2 7 C-2.66 6.67 -3.32 6.34 -4 6 C-6.00800456 6.28112064 -8.01014051 6.61067967 -10 7 C-7.20283196 3.70921407 -3.80471422 1.93694542 0 0 Z " fill="#454B53" transform="translate(63,180)"/>
<path d="M0 0 C0.66 0.99 1.32 1.98 2 3 C0.35 6.3 -1.3 9.6 -3 13 C-3.99 12.34 -4.98 11.68 -6 11 C-5.34 11 -4.68 11 -4 11 C-3.79503906 10.37351562 -3.59007812 9.74703125 -3.37890625 9.1015625 C-3.10949219 8.28429687 -2.84007812 7.46703125 -2.5625 6.625 C-2.29566406 5.81289063 -2.02882812 5.00078125 -1.75390625 4.1640625 C-1 2 -1 2 0 0 Z " fill="#D5DADE" transform="translate(39,286)"/>
<path d="M0 0 C3.66161578 1.22053859 4.16270474 2.36782304 6.1875 5.5625 C6.71730469 6.38878906 7.24710938 7.21507812 7.79296875 8.06640625 C8.19128906 8.70449219 8.58960938 9.34257812 9 10 C8.34 10.66 7.68 11.32 7 12 C5.82767315 10.3790787 4.6622923 8.75313167 3.5 7.125 C2.8503125 6.22007812 2.200625 5.31515625 1.53125 4.3828125 C0 2 0 2 0 0 Z " fill="#DDE1E4" transform="translate(148,279)"/>
<path d="M0 0 C2.70408823 1.02568864 3.97795525 1.97263411 5.8125 4.25 C7.26716699 7.61870251 6.89577032 9.49835238 6 13 C5.67 13 5.34 13 5 13 C4.80664062 12.39671875 4.61328125 11.7934375 4.4140625 11.171875 C4.15367187 10.37265625 3.89328125 9.5734375 3.625 8.75 C3.36976563 7.96109375 3.11453125 7.1721875 2.8515625 6.359375 C2.04826333 4.13372042 1.10288338 2.09068328 0 0 Z " fill="#454B51" transform="translate(138,268)"/>
<path d="M0 0 C0.99 0 1.98 0 3 0 C3 5.94 3 11.88 3 18 C2.67 18 2.34 18 2 18 C1.34 12.06 0.68 6.12 0 0 Z " fill="#3E4750" transform="translate(214,227)"/>
<path d="M0 0 C2 2 2 2 2.25 5.875 C2.18064077 9.05396475 1.80254921 11.29617618 0 14 C-1.23560209 4.88743455 -1.23560209 4.88743455 -1 1 C-0.67 0.67 -0.34 0.34 0 0 Z " fill="#24292E" transform="translate(346,242)"/>
<path d="M0 0 C1.0169313 2.65498232 1.13022151 3.69155375 0.00390625 6.359375 C-0.47175781 7.14828125 -0.94742188 7.9371875 -1.4375 8.75 C-2.14712891 9.94882813 -2.14712891 9.94882813 -2.87109375 11.171875 C-3.24363281 11.77515625 -3.61617187 12.3784375 -4 13 C-5.0169313 10.34501768 -5.13022151 9.30844625 -4.00390625 6.640625 C-3.52824219 5.85171875 -3.05257812 5.0628125 -2.5625 4.25 C-2.08941406 3.45078125 -1.61632812 2.6515625 -1.12890625 1.828125 C-0.75636719 1.22484375 -0.38382812 0.6215625 0 0 Z " fill="#E0E4E8" transform="translate(67,228)"/>
<path d="M0 0 C-1.375 2.5 -1.375 2.5 -3 5 C-3.66 5 -4.32 5 -5 5 C-5.33 5.66 -5.66 6.32 -6 7 C-6.66 7 -7.32 7 -8 7 C-6.25 3.125 -6.25 3.125 -4 2 C-4.99 2 -5.98 2 -7 2 C-7 1.34 -7 0.68 -7 0 C-4.3333581 -1.33332095 -2.83319697 -0.67102033 0 0 Z " fill="#2D3640" transform="translate(89,170)"/>
<path d="M0 0 C1.32 0.33 2.64 0.66 4 1 C3.67 1.66 3.34 2.32 3 3 C3.92708636 5.5985161 5.06035207 8.07229953 6.1875 10.58984375 C7 13 7 13 6 16 C4.9955866 13.7101766 3.99632388 11.4183401 3 9.125 C2.71382812 8.47402344 2.42765625 7.82304687 2.1328125 7.15234375 C0 2.2265625 0 2.2265625 0 0 Z " fill="#414953" transform="translate(219,253)"/>
<path d="M0 0 C1.32 0.66 2.64 1.32 4 2 C3.2884375 2.928125 3.2884375 2.928125 2.5625 3.875 C0.97582559 5.90705546 0.97582559 5.90705546 0 8 C-1.32 7.67 -2.64 7.34 -4 7 C-3.02391783 4.07175348 -1.89213369 2.38573379 0 0 Z " fill="#40464A" transform="translate(57,253)"/>
<path d="M0 0 C3.34998521 1.11666174 3.79340222 1.74694925 5.6875 4.5625 C6.12449219 5.20316406 6.56148437 5.84382812 7.01171875 6.50390625 C7.33785156 6.99761719 7.66398437 7.49132812 8 8 C7.34 8.66 6.68 9.32 6 10 C4.99106869 8.90398831 3.99311775 7.79786082 3 6.6875 C2.1646875 5.76517578 2.1646875 5.76517578 1.3125 4.82421875 C0 3 0 3 0 0 Z " fill="#D2D7DD" transform="translate(28,227)"/>
<path d="M0 0 C0.66 0 1.32 0 2 0 C2.33 1.32 2.66 2.64 3 4 C1.02 5.32 -0.96 6.64 -3 8 C-3.66 7.67 -4.32 7.34 -5 7 C-4.34 6.01 -3.68 5.02 -3 4 C-2.34 4 -1.68 4 -1 4 C-0.67 2.68 -0.34 1.36 0 0 Z " fill="#596064" transform="translate(152,288)"/>
<path d="M0 0 C-3.19990508 2.74277578 -6.00499382 4.6302836 -10 6 C-9.75 4.125 -9.75 4.125 -9 2 C-6.04454879 -0.11103658 -3.56144099 -0.19785783 0 0 Z " fill="#575B62" transform="translate(128,307)"/>
<path d="M0 0 C2.33944736 0.28730055 4.6739143 0.61936779 7 1 C7 1.99 7 2.98 7 4 C4.69 4 2.38 4 0 4 C-0.33 3.01 -0.66 2.02 -1 1 C-0.67 0.67 -0.34 0.34 0 0 Z " fill="#2C323A" transform="translate(194,275)"/>
<path d="M0 0 C0.75 1.5625 0.75 1.5625 1 4 C-0.13084437 6.50286409 -1.52139516 8.67007722 -3 11 C-3.75 9.4375 -3.75 9.4375 -4 7 C-2.86915563 4.49713591 -1.47860484 2.32992278 0 0 Z " fill="#E1E7EB" transform="translate(44,277)"/>
<path d="M0 0 C0.93065133 2.60582371 1.14917407 3.64198224 0.0625 6.25 C-0.4634375 7.11625 -0.4634375 7.11625 -1 8 C-1.66 8 -2.32 8 -3 8 C-3.66 6.68 -4.32 5.36 -5 4 C-3.35 2.68 -1.7 1.36 0 0 Z " fill="#3C4248" transform="translate(149,266)"/>
<path d="M0 0 C0.66 0 1.32 0 2 0 C2.83796731 4.65537393 3.0161692 8.37078475 2 13 C1.67 13 1.34 13 1 13 C0.67 8.71 0.34 4.42 0 0 Z " fill="#767A7F" transform="translate(445,240)"/>
<path d="M0 0 C3.63094642 2.64960955 5.89851796 5.01824456 8 9 C7.01 9 6.02 9 5 9 C0 3.76744186 0 3.76744186 0 0 Z " fill="#DFE4E8" transform="translate(35,235)"/>
<path d="M0 0 C0.66 0 1.32 0 2 0 C3.32 2.31 4.64 4.62 6 7 C5.34 7.66 4.68 8.32 4 9 C3.54625 8.195625 3.0925 7.39125 2.625 6.5625 C1.25274335 3.91143428 1.25274335 3.91143428 -1 3 C-0.67 2.01 -0.34 1.02 0 0 Z " fill="#CBCED2" transform="translate(110,223)"/>
<path d="M0 0 C1.2065625 0.0309375 1.2065625 0.0309375 2.4375 0.0625 C2.4375 1.3825 2.4375 2.7025 2.4375 4.0625 C1.81875 4.206875 1.2 4.35125 0.5625 4.5 C-1.59508322 4.99402225 -1.59508322 4.99402225 -3.5625 6.0625 C-3.605221 4.39638095 -3.60313832 2.72867115 -3.5625 1.0625 C-2.5625 0.0625 -2.5625 0.0625 0 0 Z " fill="#2C343B" transform="translate(445.5625,217.9375)"/>
<path d="M0 0 C5.28089024 -0.30466674 6.577168 -0.317124 11 3 C7.37 3 3.74 3 0 3 C0 2.01 0 1.02 0 0 Z " fill="#5E7181" transform="translate(194,214)"/>
<path d="M0 0 C2.9719385 1.12451727 5.33440687 2.22293791 8 4 C7.67 4.66 7.34 5.32 7 6 C4.69 5.01 2.38 4.02 0 3 C0 2.01 0 1.02 0 0 Z " fill="#5A5E63" transform="translate(135,192)"/>
<path d="M0 0 C1.32 0.33 2.64 0.66 4 1 C2.26440562 4.057952 0.61527381 6.63379989 -2 9 C-2.33 8.34 -2.66 7.68 -3 7 C-2.06421005 4.64018187 -1.06652192 2.30368736 0 0 Z " fill="#394048" transform="translate(92,178)"/>
<path d="M0 0 C3.875 1.75 3.875 1.75 5 4 C0.25 5.125 0.25 5.125 -2 4 C-1.34 2.68 -0.68 1.36 0 0 Z " fill="#3C444C" transform="translate(57,266)"/>
<path d="M0 0 C0.66 0.99 1.32 1.98 2 3 C0.19587357 6.26460973 -0.83394693 7.88929795 -4 10 C-4.1875 7.6875 -4.1875 7.6875 -4 5 C-2.5625 3.3125 -2.5625 3.3125 -1 2 C-0.67 1.34 -0.34 0.68 0 0 Z " fill="#D0D3D8" transform="translate(56,250)"/>
<path d="M0 0 C0.66 0 1.32 0 2 0 C1.39009109 3.55780196 0.4216319 6.6828589 -1 10 C-2.1875 8.375 -2.1875 8.375 -3 6 C-1.625 2.75 -1.625 2.75 0 0 Z " fill="#D5DADF" transform="translate(70,220)"/>
<path d="M0 0 C0.33 0 0.66 0 1 0 C1 4.29 1 8.58 1 13 C0.01 13.33 -0.98 13.66 -2 14 C-1.43393721 9.30976546 -0.81462495 4.65499974 0 0 Z " fill="#181B24" transform="translate(334,257)"/>
<path d="M0 0 C3.99996286 1.33332095 4.83782337 3.4957827 7 7 C6.01 7 5.02 7 4 7 C0 2.65714286 0 2.65714286 0 0 Z " fill="#DEE3E7" transform="translate(92,305)"/>
<path d="M0 0 C3.99996286 1.33332095 4.83782337 3.4957827 7 7 C6.01 7 5.02 7 4 7 C0 2.65714286 0 2.65714286 0 0 Z " fill="#DEE3E7" transform="translate(64,271)"/>
<path d="M0 0 C0.66 0.99 1.32 1.98 2 3 C0.625 6.6875 0.625 6.6875 -1 10 C-2.1875 8.375 -2.1875 8.375 -3 6 C-1.625 2.75 -1.625 2.75 0 0 Z " fill="#D4D8DD" transform="translate(47,269)"/>
<path d="M0 0 C0.33 0.99 0.66 1.98 1 3 C-0.4375 5.6875 -0.4375 5.6875 -2 8 C-2.66 6.68 -3.32 5.36 -4 4 C-2.68 2.68 -1.36 1.36 0 0 Z " fill="#393F45" transform="translate(97,240)"/>
<path d="M0 0 C1.65 0 3.3 0 5 0 C3.1875 2 3.1875 2 1 4 C0.01 4 -0.98 4 -2 4 C-1.34 2.68 -0.68 1.36 0 0 Z " fill="#63676B" transform="translate(315,275)"/>
<path d="M0 0 C0.66 0.33 1.32 0.66 2 1 C3.27536232 6.44927536 3.27536232 6.44927536 2 9 C1.01 8.67 0.02 8.34 -1 8 C-0.67 5.36 -0.34 2.72 0 0 Z " fill="#38424E" transform="translate(241,264)"/>
<path d="M0 0 C0.66 0 1.32 0 2 0 C2.76173392 4.3164922 3.16063604 7.74433453 2 12 C1.67 12 1.34 12 1 12 C0.83278881 10.18755015 0.66624559 8.37503867 0.5 6.5625 C0.36078125 5.04849609 0.36078125 5.04849609 0.21875 3.50390625 C0 1 0 1 0 0 Z " fill="#516068" transform="translate(158,252)"/>
<path d="M0 0 C1.65 0 3.3 0 5 0 C5 0.66 5 1.32 5 2 C4.01 2 3.02 2 2 2 C2 2.99 2 3.98 2 5 C1.01 4.67 0.02 4.34 -1 4 C-0.67 2.68 -0.34 1.36 0 0 Z " fill="#3A4B58" transform="translate(254,224)"/>
<path d="M0 0 C0.66 0 1.32 0 2 0 C4 2 4 2 6 5 C5.01 5 4.02 5 3 5 C2.67 5.66 2.34 6.32 2 7 C0.5393715 4.35261084 0 3.10551666 0 0 Z " fill="#C8CBD0" transform="translate(106,217)"/>
<path d="M0 0 C2.475 0.99 2.475 0.99 5 2 C4.67 3.65 4.34 5.3 4 7 C0 2.25 0 2.25 0 0 Z " fill="#464B51" transform="translate(122,185)"/>
<path d="M0 0 C0.66 0 1.32 0 2 0 C2.33 0.99 2.66 1.98 3 3 C2.01 4.485 2.01 4.485 1 6 C-0.32 5.34 -1.64 4.68 -3 4 C-3 3.34 -3 2.68 -3 2 C-2.01 2 -1.02 2 0 2 C0 1.34 0 0.68 0 0 Z " fill="#42464B" transform="translate(149,274)"/>
<path d="M0 0 C0.99 0.33 1.98 0.66 3 1 C3 2.65 3 4.3 3 6 C2.01 6 1.02 6 0 6 C0 4.02 0 2.04 0 0 Z " fill="#383B42" transform="translate(331,273)"/>
<path d="M0 0 C0.33 0 0.66 0 1 0 C1 2.31 1 4.62 1 7 C-0.32 7 -1.64 7 -3 7 C-1.125 1.125 -1.125 1.125 0 0 Z " fill="#2E363E" transform="translate(158,259)"/>
<path d="M0 0 C0.66 0.66 1.32 1.32 2 2 C1.01 3.98 0.02 5.96 -1 8 C-1.66 7.67 -2.32 7.34 -3 7 C-1.125 1.125 -1.125 1.125 0 0 Z " fill="#D4D9DE" transform="translate(88,260)"/>
<path d="M0 0 C0.66 0.99 1.32 1.98 2 3 C1.01 4.98 0.02 6.96 -1 9 C-1.66 8.01 -2.32 7.02 -3 6 C-2.01 4.02 -1.02 2.04 0 0 Z " fill="#CED3D7" transform="translate(99,239)"/>
<path d="M0 0 C-0.66 2.31 -1.32 4.62 -2 7 C-2.99 6.01 -3.98 5.02 -5 4 C-4.67 3.01 -4.34 2.02 -4 1 C-2 0 -2 0 0 0 Z " fill="#4A4F54" transform="translate(82,170)"/>
</svg>
